<svg xmlns="http://www.w3.org/2000/svg" width="19" height="18" viewBox="0 0 19 18">
    <path fill="#000" fill-rule="nonzero" d="M8.07 10.922a.845.845 0 0 1-1.133.001.744.744 0 0 1 0-1.072L16.973.217a.845.845 0 0 1 1.132 0 .744.744 0 0 1 0 1.073L8.07 10.922zM17.002 18H1.947C.883 18 0 17.161 0 16.151V1.85C0 .839.883 0 1.947 0h10.088c.41 0 .769.364.769.778 0 .426-.371.779-.82.779H2.51c-.473 0-.87.377-.87.827v13.28c0 .45.397.828.87.828h13.98c.473 0 .87-.378.87-.827V6.08c0-.426.37-.778.82-.778.45 0 .82.352.82.778v10.084c-.06 1.01-.946 1.835-1.998 1.835z"/>
</svg>
